<?xml version="1.0" encoding="utf-8"?>
<!-- Generator: Adobe Illustrator 24.3.0, SVG Export Plug-In . SVG Version: 6.00 Build 0)  -->
<svg version="1.0" id="katman_1" xmlns="http://www.w3.org/2000/svg" xmlns:xlink="http://www.w3.org/1999/xlink" x="0px" y="0px"
	 viewBox="0 0 841.89 595.28" style="enable-background:new 0 0 841.89 595.28;" xml:space="preserve">
<style type="text/css">
	.st0{clip-path:url(#SVGID_2_);}
	.st1{fill:#AEDEFF;}
	.st2{fill:#388FE5;}
	.st3{fill:#0061AF;}
	.st4{fill:#6BBCF4;}
	.st5{fill:#E1F3FF;}
	.st6{fill:#C4C0BC;}
</style>
<g>
	<defs>
		<rect id="SVGID_1_" x="147.6" y="169.73" width="547.32" height="253.89"/>
	</defs>
	<clipPath id="SVGID_2_">
		<use xlink:href="#SVGID_1_"  style="overflow:visible;"/>
	</clipPath>
	<g class="st0">
		<path class="st1" d="M274.5,263.39c-16.76,0-26.54-2.87-37.22,10.81c-10.67,13.68-2.39,21-13.07,34.62
			c-10.67,13.61-18.95,6.43-29.62,20.11c-10.67,13.68-2.39,20.87-12.79,34.55c-10.4,13.68-19.16,6.5-29.83,20.18
			c-10.67,13.68,1.16,34.21,4.58,40.16h437.85l-16.9-158.04L274.5,263.39z"/>
		<path class="st2" d="M689.99,285.83l-97.7-22.37l-80.04-93.73H342.99c-67.8,1.37-118.7,74.23-118.7,169.12h470.62v-49.26
			C694.91,286.86,692.72,286.65,689.99,285.83z"/>
		<path class="st3" d="M694.91,382.16H244.2l-19.91-43.24h470.62V382.16z"/>
		<path class="st4" d="M291.27,374.02c0.04,9.77,2.98,19.32,8.44,27.42c5.46,8.11,13.2,14.41,22.24,18.13
			c9.04,3.71,18.98,4.66,28.56,2.73c9.58-1.93,18.38-6.66,25.27-13.58c6.9-6.93,11.59-15.74,13.48-25.33
			c1.89-9.59,0.9-19.52-2.85-28.55c-3.75-9.03-10.09-16.74-18.22-22.17c-8.13-5.43-17.68-8.32-27.46-8.32
			c-6.51,0.01-12.95,1.3-18.97,3.8c-6.01,2.5-11.47,6.16-16.06,10.78c-4.59,4.61-8.23,10.09-10.71,16.11
			C292.51,361.05,291.25,367.5,291.27,374.02L291.27,374.02z"/>
		<path class="st5" d="M317.81,374.02c0.01,4.53,1.37,8.95,3.9,12.71c2.53,3.76,6.11,6.69,10.3,8.41c4.19,1.72,8.8,2.17,13.24,1.28
			c4.44-0.89,8.52-3.08,11.72-6.29c3.2-3.21,5.37-7.29,6.25-11.74c0.88-4.44,0.42-9.05-1.32-13.23c-1.74-4.18-4.67-7.76-8.44-10.27
			c-3.77-2.51-8.2-3.86-12.73-3.86c-6.08,0.02-11.91,2.45-16.21,6.76C320.22,362.09,317.81,367.93,317.81,374.02L317.81,374.02z"/>
		<path class="st4" d="M541.6,374.02c0.04,9.77,2.98,19.32,8.44,27.42c5.46,8.11,13.2,14.42,22.24,18.13
			c9.04,3.71,18.98,4.66,28.56,2.73c9.58-1.93,18.38-6.66,25.27-13.58c6.9-6.93,11.59-15.74,13.48-25.33
			c1.89-9.59,0.9-19.52-2.85-28.55c-3.75-9.03-10.09-16.74-18.22-22.17c-8.13-5.43-17.68-8.32-27.46-8.32
			c-6.51,0.01-12.95,1.3-18.97,3.8c-6.01,2.5-11.47,6.16-16.06,10.78c-4.59,4.61-8.23,10.09-10.71,16.11
			C542.84,361.06,541.58,367.51,541.6,374.02L541.6,374.02z"/>
		<path class="st5" d="M568.14,374.02c0.01,4.53,1.37,8.95,3.9,12.71c2.53,3.76,6.11,6.69,10.3,8.41c4.19,1.72,8.8,2.17,13.24,1.28
			c4.44-0.89,8.52-3.08,11.72-6.29c3.2-3.21,5.37-7.29,6.25-11.74c0.88-4.44,0.42-9.05-1.32-13.23c-1.74-4.18-4.67-7.76-8.44-10.27
			c-3.77-2.51-8.2-3.86-12.73-3.86c-6.08,0.02-11.91,2.45-16.21,6.76C570.55,362.09,568.14,367.93,568.14,374.02L568.14,374.02z"/>
		<path class="st6" d="M500.14,275.16h-19.02v9.51h19.02V275.16z"/>
		<path class="st5" d="M441.5,187.24h-73.13v73.13h73.13V187.24z"/>
		<path class="st5" d="M349.55,263.73H274.3c0.01-9.78,1.99-19.46,5.8-28.46c3.81-9.01,9.39-17.16,16.41-23.97
			c7.01-6.82,15.32-12.16,24.43-15.71c9.11-3.55,18.84-5.25,28.62-4.99V263.73z"/>
		<path class="st5" d="M571.42,260.17H460.18v-73.13h48.78L571.42,260.17z"/>
		<path class="st5" d="M262.74,319.15c-0.15-5.67-1.56-11.23-4.13-16.28c-2.57-5.05-6.23-9.47-10.72-12.93
			c-4.99-3.93-10.82-6.64-17.04-7.94c-3,12.19-4.95,24.62-5.82,37.15H262.74z"/>
		<path class="st5" d="M694.91,318.8h-24.9c-1.36,0-2.67-0.54-3.63-1.5c-0.96-0.96-1.5-2.27-1.5-3.63v-13.68
			c0-1.36,0.54-2.67,1.5-3.63c0.96-0.96,2.27-1.5,3.63-1.5h24.9"/>
	</g>
</g>
</svg>
